<?xml version="1.0" encoding="utf-8"?>
<svg xmlns="http://www.w3.org/2000/svg" xmlns:xlink="http://www.w3.org/1999/xlink" version= "1.1" width="1396px" height="1397px" viewBox="-32 405 1396 1397">
<g id="layer1">
<g style="fill:rgb(6,137,156); fill-opacity:1.0; stroke-linejoin: miter">
<path d="M-37.61534,400.53836C-38.072327,400.53836,-38.510597,400.7201,-38.833694,401.04312C-39.15679,401.36627,-39.338367,401.8044,-39.338367,402.26132L-39.33713,1811.6969C-39.33713,1812.6486,-38.565765,1813.42,-37.614105,1813.42L1370.6304,1813.4208C1371.0874,1813.4208,1371.5259,1813.2391,1371.8491,1812.9161C1372.1719,1812.5931,1372.3535,1812.1549,1372.3535,1811.6979L1372.3523,402.26254C1372.3523,401.31116,1371.581,400.53958,1370.6294,400.53958L-37.61534,400.53836 Z"/>
</g>
<g style="fill:rgb(0,0,0); fill-opacity:0.99607843; stroke-linejoin: miter">
<path d="M493.37405,924.11536L493.37454,924.11584L493.37405,924.11536L493.37454,924.11584 Z"/>
</g>
<g style="fill:rgb(255,255,255); fill-opacity:1.0; stroke-linejoin: miter">
<path d="M499.74155,905.1637L499.7418,905.16406L499.74185,905.1643L499.74155,905.1637 Z"/>
</g>
<g style="fill:rgb(105,232,251); fill-opacity:1.0; stroke-linejoin: miter">
<path d="M974.78503,581.3701C974.2605,579.4144,974.0105,577.39685,974.0409,575.3529C974.2241,563.26965,984.2031,553.5879,996.28723,553.771C1001.31384,553.84595,1006.198,555.66614,1010.0399,558.89453C1013.4564,561.76575,1015.927,565.63525,1017.0963,569.9065C1025.1936,569.2728,1032.4265,574.5145,1034.5974,582.0381C1035.8259,581.77734,1037.0791,581.65576,1038.3401,581.6754C1047.6396,581.8159,1055.092,589.4413,1054.9517,598.7411C1054.8103,608.042,1047.1309,615.4381,1037.8313,615.29785L978.9502,614.4076C969.65027,614.26697,962.1987,606.6404,962.33936,597.3407C962.45447,589.73206,967.5885,583.30615,974.78503,581.3701 Z"/>
</g>
<g style="fill:rgb(105,232,251); fill-opacity:1.0; stroke-linejoin: miter">
<path d="M1278.303,1557.9174C1279.0471,1555.1426,1279.4021,1552.2803,1279.3589,1549.3798C1279.0986,1532.2344,1264.9392,1518.4968,1247.7927,1518.7571C1240.6604,1518.8636,1233.73,1521.4463,1228.279,1526.0271C1223.4309,1530.101,1219.9255,1535.5917,1218.2661,1541.6528C1206.7766,1540.7535,1196.5139,1548.191,1193.4333,1558.8665C1191.6909,1558.4968,1189.9124,1558.324,1188.1228,1558.3523C1174.9277,1558.5521,1164.3533,1569.3713,1164.5527,1582.5673C1164.7532,1595.7638,1175.6497,1606.259,1188.8452,1606.0594L1272.3933,1604.7954C1285.5894,1604.5955,1296.1624,1593.7743,1295.9626,1580.5789C1295.7993,1569.7823,1288.5146,1560.6643,1278.303,1557.9174 Z"/>
</g>
<g style="fill:rgb(105,232,251); fill-opacity:1.0; stroke-linejoin: miter">
<path d="M208.64722,972.2136C208.12274,970.25793,207.87274,968.24036,207.90314,966.1964C208.08636,954.11316,218.0653,944.4314,230.14941,944.6145C235.17609,944.68945,240.06024,946.50964,243.9021,949.73804C247.31866,952.60925,249.78925,956.47876,250.95856,960.75C259.05597,960.11633,266.28876,965.35803,268.45984,972.8816C269.68823,972.62085,270.94135,972.49927,272.20245,972.5189C281.502,972.6594,288.95428,980.2848,288.8139,989.5846C288.67267,998.8855,280.99323,1006.2816,271.6936,1006.14136L212.81238,1005.2511C203.51245,1005.1105,196.06091,997.4839,196.2016,988.1842C196.31665,980.57556,201.45068,974.14966,208.64722,972.2136 Z"/>
</g>
<g style="fill:rgb(105,232,251); fill-opacity:1.0; stroke-linejoin: miter">
<path d="M1111.2065,1132.506C1110.6821,1130.5502,1110.4321,1128.5326,1110.4624,1126.4886C1110.6458,1114.4054,1120.6245,1104.7238,1132.7087,1104.9069C1137.7354,1104.9818,1142.6196,1106.8019,1146.4614,1110.0304C1149.8779,1112.9015,1152.3486,1116.7711,1153.5178,1121.0424C1161.6152,1120.4086,1168.8481,1125.6503,1171.019,1133.174C1172.2476,1132.9132,1173.5007,1132.7916,1174.7617,1132.8112C1184.0613,1132.9518,1191.5137,1140.577,1191.3733,1149.8768C1191.2319,1159.1779,1183.5525,1166.5739,1174.2529,1166.4337L1115.3716,1165.5433C1106.0718,1165.4027,1098.6201,1157.7762,1098.761,1148.4764C1098.876,1140.8678,1104.01,1134.442,1111.2065,1132.506 Z"/>
</g>
<g style="fill:rgb(0,0,0); fill-opacity:1.0; stroke-linejoin: miter">
<path d="M272.8784,1308.1669L272.01016,1307.442Q267.19205,1303.5419,264.77084,1299.7765Q261.8785,1295.3768,260.71402,1289.0433Q259.88162,1284.3588,260.77597,1279.8934Q261.37497,1276.0853,265.2597,1270.8387Q272.5224,1262.093,282.6651,1259.5Q285.6122,1258.7706,288.4127,1258.667Q291.6112,1258.6471,292.78226,1258.9519Q294.3304,1259.2301,295.77408,1259.8389L300.5778,1262.2391Q301.7145,1262.7014,302.43,1262.703Q304.77347,1262.7428,307.94672,1260.4083Q310.05902,1263.4413,309.6699,1266.1824Q309.53867,1268.705,306.38507,1276.1986L287.2638,1300.8574L272.8784,1308.1669"/>
</g>
<g style="fill:rgb(250,187,155); fill-opacity:1.0; stroke-linejoin: miter">
<path d="M287.59802,1322.2258L293.9504,1312.7401Q300.92944,1315.0715,304.68594,1315.6702Q308.90674,1316.3423,311.05014,1315.1909Q312.2996,1314.4404,312.79636,1313.6368Q313.2327,1313.363,314.19443,1310.417Q315.0447,1307.3271,315.12967,1299.8972L319.50272,1299.001L313.188,1288.4131Q311.9056,1276.1865,309.749,1271.3671Q308.61972,1268.4515,305.33682,1267.4652Q302.53775,1266.8225,298.29117,1268.9166Q295.34573,1270.4451,293.77792,1273.3057Q292.3614,1275.9163,292.62347,1280.7522Q293.06937,1286.2137,294.9357,1288.8507Q289.16238,1281.9291,285.26202,1284.4507Q284.39417,1284.9559,283.54904,1287.0055Q283.31314,1287.069,281.293,1295.609L280.3891,1298.5875Q279.39606,1301.5997,277.98264,1303.7673Q276.02426,1307.4497,269.43018,1306.9023L287.59802,1322.2258"/>
</g>
<g style="fill:rgb(0,0,0); fill-opacity:1.0; stroke-linejoin: miter">
<path d="M198.50931,1634.7635L214.67438,1654.9015Q210.13,1656.8069,208.22125,1657.4568Q205.66351,1658.377,203.2007,1658.8893Q198.89241,1659.7865,195.49045,1658.7391Q193.47026,1658.3496,189.26405,1655.254Q185.72293,1652.324,182.3398,1648.7131L177.99603,1652.0416L163.65445,1639.6759L171.99487,1624.1185L198.50931,1634.7635"/>
</g>
<g style="fill:rgb(19,2,2); fill-opacity:1.0; stroke-linejoin: miter">
<path d="M268.65796,1309.3157L269.41785,1305.93Q273.7973,1306.4347,282.64188,1312.1721Q285.93622,1314.462,287.42398,1319.1708L289.1742,1337.6589Q290.53992,1385.3936,290.39087,1400.018Q290.49585,1427.1996,286.7605,1444.9574L257.5946,1429.1606L268.65796,1309.3157"/>
</g>
<g style="fill:rgb(43,110,122); fill-opacity:1.0; stroke-linejoin: miter">
<path d="M88.826,1697.426L-28.988274,1698.5679L-27.91325,1809.4382L89.9121,1809.438L88.826,1697.426 Z"/>
</g>
<g style="fill:rgb(43,110,122); fill-opacity:1.0; stroke-linejoin: miter">
<path d="M258.54306,1654.3376L110.28344,1656.4652L112.478905,1809.4366L260.769,1809.4375L258.54306,1654.3376 Z"/>
</g>
<g style="fill:rgb(43,110,122); fill-opacity:1.0; stroke-linejoin: miter">
<path d="M407.50064,1604.9899L277.06558,1606.8618L279.97302,1809.4364L410.43488,1809.4371L407.50064,1604.9899 Z"/>
</g>
<g style="fill:rgb(43,110,122); fill-opacity:1.0; stroke-linejoin: miter">
<path d="M564.4298,1546.5002L426.4456,1548.4811L430.19083,1809.4364L568.20337,1809.4371L564.4298,1546.5002 Z"/>
</g>
<g style="fill:rgb(43,110,122); fill-opacity:1.0; stroke-linejoin: miter">
<path d="M716.75714,1491.284L584.4419,1493.1829L588.98065,1809.4358L721.3233,1809.4366L716.75714,1491.284 Z"/>
</g>
<g style="fill:rgb(43,110,122); fill-opacity:1.0; stroke-linejoin: miter">
<path d="M744.6395,1425.5385L811.92554,1424.5729L879.2115,1423.6069L884.6784,1804.4948L750.1062,1806.4258L744.6395,1425.5385"/>
</g>
<g style="fill:rgb(43,110,122); fill-opacity:1.0; stroke-linejoin: miter">
<path d="M1043.0732,1349.0372L898.90564,1351.1062L905.48364,1809.4353L944.2306,1809.4366L1049.6592,1807.9221L1043.0732,1349.0372 Z"/>
</g>
<g style="fill:rgb(255,255,255); fill-opacity:1.0; stroke-linejoin: miter">
<path d="M200.4203,1638.6077L170.66568,1627.5044L219.55309,1466.9415L256.90436,1425.039L278.72696,1436.9407Q277.99466,1448.4425,284.3596,1456.653Q289.4889,1464.3018,301.0572,1478.3887Q305.6676,1484.2241,317.54733,1495.874Q321.21533,1500.151,321.56723,1501.154Q325.1068,1506.5758,323.30392,1514.54Q322.7669,1518.3628,316.58813,1529.6436Q292.6,1567.0623,280.48663,1588.174L258.49625,1572.4991L294.35037,1513.8247L248.58537,1484.7737L200.4203,1638.6077"/>
</g>
<g style="fill:rgb(255,255,255); fill-opacity:1.0; stroke-linejoin: miter">
<path d="M243.42934,1458.1343L201.81459,1450.3582Q203.97748,1418.732,207.81569,1399.8453Q210.83128,1386.4934,211.84709,1384.0312Q215.13585,1373.7107,219.5559,1364.4396Q230.60262,1341.7327,243.26735,1327.217Q251.24739,1316.7983,267.91565,1312.2085L268.37582,1307.8147Q276.67154,1310.5491,279.29068,1315.033Q281.75616,1317.7686,284.4024,1329.0309Q285.83084,1335.435,287.7714,1349.1942Q286.8791,1376.1267,285.26147,1384.0823Q282.86914,1400.6456,275.27744,1413.1821Q271.90314,1419.7769,257.81958,1436.4941L243.42934,1458.1343"/>
</g>
<g style="fill:rgb(255,255,255); fill-opacity:1.0; stroke-linejoin: miter">
<path d="M286.52948,1461.984L295.69006,1436.367L308.23492,1439.714L317.60672,1422.9053L298.45126,1412.8152Q299.14444,1397.5398,297.28296,1383.2434Q295.81534,1370.1356,288.46344,1330.603L286.52948,1461.984"/>
</g>
<g style="fill:rgb(255,255,255); fill-opacity:1.0; stroke-linejoin: miter">
<path d="M274.22552,1437.6469L282.3407,1436.5717L290.45587,1435.4965L284.84262,1471.9285L274.22552,1437.6469"/>
</g>
<g style="fill:rgb(0,0,0); fill-opacity:1.0; stroke-linejoin: miter">
<path d="M261.84952,1571.337L260.29053,1573.1332Q249.72032,1584.9507,247.17229,1591.5781Q244.56776,1597.5798,248.7299,1606.5292L263.14142,1607.3317L264.01547,1602.9006Q264.0706,1604.4899,264.84692,1605.1003Q266.25085,1606.1086,267.05862,1606.261Q269.82184,1607.3387,279.86404,1607.8635Q312.26346,1608.7952,315.1962,1605.2003Q316.79495,1603.1343,309.2098,1600.3563Q303.18967,1598.4167,291.74893,1597.0002L261.84952,1571.337"/>
</g>
<g style="fill:rgb(0,0,0); fill-opacity:1.0; stroke-linejoin: miter">
<path d="M268.77103,1495.0251L259.3086,1534.3972L249.8462,1573.7699L135.12079,1545.596L153.97638,1463.7744L268.77103,1495.0251"/>
</g>
<g style="fill:rgb(0,0,0); fill-opacity:1.0; stroke-linejoin: miter">
<path d="M198.63725,1478.2283L203.04974,1468.043L225.49547,1475.0326L223.38533,1487.6888Q217.2664,1483.8821,216.33449,1481.7522Q215.02301,1479.6626,216.65514,1475.0305L205.8421,1472.2432L204.2097,1478.6912L198.63725,1478.2283"/>
</g>
<g style="fill:rgb(250,187,155); fill-opacity:1.0; stroke-linejoin: miter">
<path d="M311.7842,1424.0377L313.04324,1424.5137Q319.9988,1427.2115,323.9727,1427.7249Q324.6159,1427.8899,327.18616,1427.8691Q328.49014,1427.8104,331.89716,1427.3092Q333.27896,1427.173,333.54,1427.1924Q335.0989,1427.201,335.92493,1427.4783Q337.5632,1427.8977,339.23428,1429.5709Q341.1552,1431.8302,341.3739,1432.5082Q342.71298,1435.3972,342.6986,1436.0635Q342.96106,1437.3008,342.91263,1438.5222Q342.86423,1439.7437,342.44003,1440.8728L341.91516,1441.9575Q341.28897,1443.0093,340.34933,1443.9142Q337.34885,1446.665,333.15826,1447.7659Q329.8837,1448.4631,329.21338,1448.3331Q326.78015,1448.3232,324.84912,1447.5417Q322.9183,1446.7592,321.34277,1445.5818Q314.13123,1439.6417,310.94412,1437.2466L303.27725,1433.5273L311.7842,1424.0377"/>
</g>
<g style="fill:rgb(250,187,155); fill-opacity:1.0; stroke-linejoin: miter">
<path d="M228.70079,1453.9778L228.33138,1456.1917Q226.34325,1468.5621,224.42842,1473.57Q223.22624,1476.6188,222.1816,1477.7097Q221.04008,1479.0356,219.73006,1479.4567Q216.00673,1480.67,211.17845,1475.3535Q208.58209,1472.3909,207.20602,1469.092Q206.77794,1468.034,206.57733,1467.0621L206.4449,1466.1273Q206.38268,1465.2294,206.5709,1464.467Q206.97025,1462.9552,208.09813,1461.8391Q209.84692,1460.1958,212.21075,1458.8866L213.46626,1451.2861L228.70079,1453.9778"/>
</g>
<g style="fill:rgb(0,0,0); fill-opacity:1.0; stroke-linejoin: miter">
<path d="M295.75354,1290.139L295.451,1288.0194Q292.82562,1282.1442,292.37952,1278.426Q291.96616,1274.4442,293.2991,1272.5833Q294.21124,1271.0913,296.37842,1269.2189Q299.72327,1267.6403,301.6584,1267.2521Q303.31424,1266.903,304.74936,1267.3623Q306.47507,1267.9224,308.68283,1269.641L309.7109,1265.4332L295.39337,1265.0396L289.46432,1265.2336L286.93466,1267.176L291.36014,1283.5582L295.75354,1290.139"/>
</g>
<g style="fill:rgb(255,255,255); fill-opacity:1.0; stroke-linejoin: miter">
<path d="M309.38626,1423.127L313.39304,1423.1493L317.39966,1423.1716L308.9923,1440.114L293.36874,1436.3988L309.38626,1423.127"/>
</g>
<g style="fill:rgb(255,255,255); fill-opacity:1.0; stroke-linejoin: miter">
<path d="M202.59097,1447.062L202.19226,1449.5594L201.79346,1452.0565L229.72688,1457.1871L233.59901,1438.5874L202.59097,1447.062"/>
</g>
<g style="fill:rgb(255,255,255); fill-opacity:1.0; stroke-linejoin: miter">
<path d="M256.07864,1425.6709L262.1821,1424.7501Q276.45392,1431.3804,280.5102,1432.0731Q281.58975,1432.3025,282.46567,1432.3582Q283.00317,1432.4707,284.7273,1432.2135Q286.36365,1431.8812,288.1677,1430.3121L291.227,1444.7206L256.07864,1425.6709"/>
</g>
<g style="fill:rgb(255,255,255); fill-opacity:1.0; stroke-linejoin: miter">
<path d="M290.6557,1439.1932L285.06195,1437.8695L279.4682,1436.5464Q284.3823,1405.4049,289.2964,1374.2632L294.4665,1416.7659L290.6557,1439.1932"/>
</g>
<g style="fill:rgb(255,201,77); fill-opacity:1.0; stroke-linejoin: miter">
<path d="M970.9224,1198.1572C970.6367,1198.1631,970.4623,1198.348,970.38416,1198.4465L970.38416,1198.4465C970.1946,1198.6859,969.9587,1199.236,969.54156,1200.2172L969.54083,1200.2189C969.4752,1200.3749,969.3986,1200.5603,969.3197,1200.7523C969.23444,1200.9581,969.14215,1201.1816,969.061,1201.3744C969.01056,1201.4954,968.96106,1201.6113,968.91907,1201.7074L968.91583,1201.7144C968.7386,1202.1365,968.5115,1202.6796,968.40466,1202.9548L968.4037,1202.9556C968.31683,1203.1427,968.1526,1203.5261,967.9722,1203.9469C967.8507,1204.2305,967.735,1204.5006,967.60846,1204.793C967.2982,1205.4883,967.0373,1206.125,966.98584,1206.2823L966.9853,1206.283C966.9811,1206.295,966.97107,1206.3281,966.9631,1206.3705L966.95844,1206.3713C966.9051,1206.5112,966.74243,1206.9017,966.5371,1207.3729L966.53546,1207.3783C966.45764,1207.5615,966.17554,1208.2275,965.8525,1208.9882L965.8525,1208.9886L963.6471,1214.1921L963.6471,1214.1929C963.1009,1215.4828,962.6428,1216.5664,962.1802,1217.6622C961.8158,1218.5256,961.58734,1219.0665,961.32776,1219.6794L961.3278,1219.6803C961.08746,1220.2473,960.9112,1220.6608,960.85187,1220.7952L960.85205,1220.7957C960.6407,1221.2726,960.3404,1221.9862,960.17694,1222.3798L960.177,1222.3805L960.1383,1222.473L960.09265,1222.5826C959.9294,1222.9746,959.72064,1223.4758,959.5704,1223.8186L959.5611,1223.842C959.47485,1224.0669,959.34686,1224.3647,959.21716,1224.6678C959.1175,1224.9009,959.0128,1225.144,958.93884,1225.3301L958.9389,1225.3306C958.8073,1225.6426,958.5927,1226.1586,958.44745,1226.5074L958.44745,1226.5079L958.332,1226.7866L958.3319,1226.7872C957.9035,1227.8086,957.5676,1228.5345,957.3986,1228.8374L957.3939,1228.8383C955.86005,1228.9846,947.8553,1229.8105,944.3744,1230.1785L944.3737,1230.1791C943.2851,1230.2961,941.62134,1230.4677,940.6102,1230.5677L940.6078,1230.5687C938.8241,1230.7512,937.3359,1230.908,936.16833,1231.031C935.41675,1231.1105,934.4537,1231.2112,933.8874,1231.27L933.8874,1231.2709C933.5505,1231.3044,933.49054,1231.3108,933.1675,1231.3434L933.16473,1231.3434C929.52203,1231.7281,927.27856,1231.9636,926.0842,1232.0795L926.081,1232.0801C925.48596,1232.1423,925.02826,1232.2128,924.75,1232.3567L924.75,1232.3574C924.58484,1232.4417,924.37427,1232.6094,924.3264,1232.9058L924.3229,1232.9355C924.29803,1233.1731,924.43726,1233.359,924.4392,1233.3623C924.6603,1233.7019,925.5573,1234.5475,926.51764,1235.3641C926.52625,1235.3712,926.5281,1235.373,926.5281,1235.373L926.5283,1235.3741C926.5295,1235.3739,926.53143,1235.3761,926.53687,1235.3805C928.91003,1237.398,929.2202,1237.6705,930.18866,1238.5194L930.18866,1238.5195L930.339,1238.6508L930.34094,1238.653C930.44696,1238.7445,930.63275,1238.907,930.7902,1239.0443C931.0181,1239.243,931.2704,1239.464,931.5397,1239.6969C931.88495,1239.9965,932.2535,1240.3135,932.5716,1240.5797L932.57166,1240.58C933.3072,1241.2094,933.95807,1241.7749,934.03705,1241.851L934.0741,1241.8833C934.1564,1241.9492,934.9096,1242.5963,935.7406,1243.3173L935.7407,1243.3184L935.946,1243.4949L935.946,1243.4949L936.1595,1243.6807C936.8724,1244.2988,937.6408,1244.9646,937.9696,1245.2428L937.9693,1245.2434C938.2229,1245.4664,938.8046,1245.9685,939.5721,1246.6317L939.5721,1246.6326C940.1017,1247.0896,940.7829,1247.6782,941.37915,1248.1954L941.38135,1248.1973C942.86707,1249.471,944.7359,1251.096,945.506,1251.7753L945.51013,1251.7787C945.6319,1251.8846,945.8178,1252.0452,945.9602,1252.1682L945.9602,1252.169C946.14624,1252.329,946.3104,1252.4714,946.5074,1252.6412L946.5074,1252.6422C947.11255,1253.1641,947.7542,1253.7152,948.18713,1254.0725L948.1869,1254.0736C949.41956,1255.1232,949.2804,1255.1161,949.1162,1255.6757L949.11566,1255.6771C949.03687,1255.9495,948.8319,1256.7968,948.67444,1257.5889L948.67444,1257.589C948.5745,1258.079,948.41656,1258.8312,948.2635,1259.5629L948.2635,1259.5637C948.1819,1259.9503,948.0887,1260.3962,948.0217,1260.7174C947.58453,1262.7606,947.4137,1263.5636,947.1696,1264.7096C947.01917,1265.4153,946.98486,1265.5769,946.8682,1266.1208L946.8668,1266.1277C946.75397,1266.6901,946.59985,1267.3798,946.529,1267.6742C946.48157,1267.8704,946.4163,1268.1805,946.35657,1268.4647L946.35657,1268.4652C946.32214,1268.6272,946.28467,1268.8043,946.2552,1268.9397L946.2543,1268.9448L946.2525,1268.9523L946.25214,1268.9541C946.0243,1270.0717,945.5297,1272.421,945.3891,1273.0024L945.38745,1273.0087L945.38745,1273.0096C945.31354,1273.3179,945.1838,1273.9178,945.09875,1274.3589C945.0142,1274.7806,944.88763,1275.3823,944.8194,1275.6665C944.74634,1275.9679,944.6419,1276.44,944.5975,1276.7289L944.59717,1276.7297C944.5575,1276.9656,944.4625,1277.4149,944.3929,1277.7035C944.3203,1278.0035,944.2152,1278.4778,944.1705,1278.766L944.1705,1278.7668C944.131,1279.0,944.03503,1279.4546,943.96625,1279.7406C943.89233,1280.0471,943.7615,1280.6545,943.6755,1281.0968L943.6755,1281.0978C943.59045,1281.5211,943.46545,1282.1178,943.39594,1282.404C943.32263,1282.7091,943.1914,1283.3188,943.1058,1283.7609L943.1056,1283.7617C943.0083,1284.2303,942.9487,1284.4995,942.8269,1285.049L942.82697,1285.0498C942.7475,1285.4094,942.6773,1285.728,942.5378,1286.365L942.5371,1286.3651C942.4489,1286.7158,942.40466,1287.1136,942.4346,1287.3628L942.4345,1287.3632C942.44055,1287.4115,942.4563,1287.5199,942.51227,1287.6265L942.5762,1287.7224C942.75116,1287.9319,942.992,1287.9286,943.03723,1287.9277L943.0389,1287.9283C943.11475,1287.9261,943.1795,1287.9117,943.22107,1287.9009L943.2218,1287.902C943.5664,1287.813,944.3652,1287.3865,945.2676,1286.8488L945.27185,1286.8461C946.3066,1286.215,947.3759,1285.5753,947.6514,1285.4148L947.6828,1285.3951C947.81445,1285.3062,948.01117,1285.1882,948.22314,1285.0629C948.3755,1284.9722,948.5376,1284.8755,948.6651,1284.7942L948.6648,1284.7952C948.8405,1284.6863,949.2698,1284.4263,949.871,1284.0615L949.87103,1284.0624C950.1101,1283.9163,950.79987,1283.4978,951.08154,1283.3267L951.08234,1283.3262C952.9888,1282.1642,953.4418,1281.8917,954.51587,1281.2461L954.51587,1281.247C955.58575,1280.6056,963.9924,1275.5225,964.46106,1275.2377L964.4829,1275.2236C964.65155,1275.1095,964.9276,1274.9458,965.1928,1274.7878L965.1926,1274.7883C965.30786,1274.7195,965.3959,1274.667,965.4927,1274.608L965.4927,1274.6088C965.6258,1274.5275,965.84247,1274.398,966.0283,1274.2874C966.20636,1274.1813,966.4413,1274.0413,966.57135,1273.9623L966.57245,1273.9619L966.98816,1273.7084L966.98816,1273.7091L967.40356,1273.4565C967.9976,1273.0948,968.503,1272.7881,969.4991,1272.1866L969.50116,1272.1857C969.7836,1272.0134,970.01544,1271.8707,970.2349,1271.7354L970.2349,1271.7358C970.3844,1271.6437,970.5765,1271.5253,970.69086,1271.455C971.40533,1271.0192,971.569,1270.9602,971.6286,1270.9558L971.63336,1270.9563C971.65125,1270.9595,971.6891,1270.9738,971.8861,1271.0848L971.88654,1271.0853C971.95715,1271.1243,972.0562,1271.1796,972.1589,1271.2334L972.1589,1271.2339C972.6318,1271.4888,973.15753,1271.7914,973.3511,1271.9235C973.5974,1272.0923,974.87195,1272.8307,976.15186,1273.5607L976.15186,1273.5613C977.1917,1274.1582,978.569,1274.9545,979.25354,1275.3497L979.25354,1275.3501L979.62244,1275.5632L979.62244,1275.5638C981.737,1276.8137,988.78766,1280.8887,989.35516,1281.182L989.3548,1281.1829C989.6418,1281.3412,990.0597,1281.598,990.2917,1281.7457L990.28937,1281.7461C990.47974,1281.8849,990.6948,1282.0088,990.85156,1282.0671L990.85156,1282.0676C990.86945,1282.0741,990.91113,1282.0892,990.96643,1282.1017L990.9614,1282.1024C991.08966,1282.168,991.4359,1282.3698,991.832,1282.6304L991.832,1282.6309C992.2689,1282.9175,992.723,1283.1868,992.9012,1283.2649L992.9007,1283.2657C992.9102,1283.2695,992.97363,1283.2988,993.0576,1283.3137L993.0531,1283.3147C993.106,1283.3387,993.22363,1283.4036,993.35034,1283.4991L993.38586,1283.5239C993.6258,1283.6769,994.08057,1283.9569,994.39453,1284.1298L994.39453,1284.1304C994.40094,1284.1333,994.406,1284.1362,994.41144,1284.1389L994.41077,1284.1394C994.72437,1284.3127,995.9287,1284.9996,997.06793,1285.6604L997.0679,1285.6615C999.0661,1286.834,999.79175,1287.2611,1000.1099,1287.3572L1000.11035,1287.358C1000.17584,1287.3771,1000.26135,1287.3962,1000.3605,1287.3943C1000.59644,1287.3893,1000.7411,1287.2678,1000.8002,1287.2131C1000.8108,1287.2035,1000.802,1287.2113,1000.81244,1287.2023L1000.8146,1287.1998C1000.8146,1287.1998,1000.81805,1287.1965,1000.8196,1287.195L1000.8196,1287.1957L1000.8667,1287.1455C1001.01306,1286.971,1001.0114,1286.7572,1001.0123,1286.7272L1001.0123,1286.7268C1001.0273,1286.2373,1000.6186,1284.4016,999.54663,1279.8828C999.21045,1278.4319,998.9887,1277.4875,998.7992,1276.679C998.6748,1276.149,998.57654,1275.7318,998.4779,1275.3068L998.4779,1275.3079C998.41284,1275.0249,998.3475,1274.7397,998.2823,1274.4512L998.2814,1274.4464C998.11334,1273.7286,997.8008,1272.3888,997.59796,1271.5009L997.5969,1271.4954L997.5963,1271.4945C997.3905,1270.5927,997.1516,1269.5836,997.0658,1269.2374L997.0658,1269.2383C996.98114,1268.8972,996.83075,1268.2736,996.74634,1267.8645C996.6572,1267.4178,996.50073,1266.7537,996.39703,1266.3579L996.3956,1266.3528L996.3956,1266.3525L996.3956,1266.3531C996.2973,1265.976,996.1466,1265.3235,996.0621,1264.9141C995.973,1264.4667,995.81696,1263.804,995.713,1263.4075C995.61414,1263.0294,995.46246,1262.3723,995.3773,1261.96L995.3748,1261.9478L995.34894,1261.8356L995.3489,1261.8353L995.3215,1261.7177L995.3216,1261.7184C995.1607,1261.016,994.96423,1260.1654,994.67303,1258.9891L994.67224,1258.9863C994.5878,1258.6473,994.4374,1258.0221,994.35333,1257.6155L994.35333,1257.6157C994.2979,1257.3369,994.2132,1256.9878,994.1376,1256.674L994.1374,1256.6747C994.08905,1256.4731,994.04486,1256.2909,994.0127,1256.1459L994.0122,1256.1464L994.00525,1256.1151C993.7537,1255.1008,993.6919,1254.7054,993.69696,1254.5504L993.6922,1254.5513C993.89264,1254.3823,994.4436,1253.8834,994.9618,1253.4147L994.96796,1253.4094C995.3371,1253.0657,996.3573,1252.1455,997.5624,1251.0582C998.2195,1250.4656,998.919,1249.8342,999.6178,1249.2029L999.6175,1249.2036L1000.485,1248.4252L1001.26434,1247.7266L1001.2644,1247.7273C1002.47003,1246.6465,1003.4342,1245.7798,1003.67065,1245.5546L1003.66895,1245.5552C1003.79,1245.4512,1003.98737,1245.2739,1004.2089,1245.0752L1004.2089,1245.0757C1004.50433,1244.8098,1004.81146,1244.5337,1005.1276,1244.2594L1005.1316,1244.256L1005.13544,1244.2522C1005.65955,1243.7964,1006.129,1243.3732,1006.21814,1243.2855C1006.21814,1243.2855,1006.2244,1243.2792,1006.2299,1243.2736L1006.23,1243.274C1006.25806,1243.2462,1006.4052,1243.1124,1006.63934,1242.8997L1006.6397,1242.9001C1006.81885,1242.7365,1007.1756,1242.4128,1007.43616,1242.1749L1007.4381,1242.173L1007.4467,1242.1652C1007.7647,1241.8744,1007.98944,1241.6711,1008.2298,1241.4523L1008.2298,1241.4531C1008.3905,1241.3073,1008.45593,1241.2478,1008.5566,1241.1554L1008.55676,1241.1552C1008.6064,1241.1105,1008.64343,1241.0758,1008.66766,1241.0525L1008.66766,1241.053C1008.6728,1241.0477,1008.677,1241.0432,1008.68207,1241.0382L1008.6819,1241.0383C1008.738,1240.9827,1009.1866,1240.5753,1009.7236,1240.1091L1009.7278,1240.1056C1010.055,1239.8152,1010.12683,1239.7524,1010.3806,1239.5282C1010.5368,1239.3909,1010.73615,1239.2142,1010.9185,1239.0531C1011.49854,1238.5391,1012.4392,1237.7023,1014.756,1235.6329L1014.7694,1235.6206L1014.7717,1235.6182L1014.77246,1235.619C1016.37225,1234.1813,1017.7947,1232.8247,1018.05005,1232.4753L1018.05023,1232.4758C1018.0526,1232.4751,1018.1864,1232.3054,1018.18207,1232.091C1018.18085,1232.033,1018.1771,1231.9752,1018.1711,1231.9207L1018.1761,1231.9208C1018.1776,1231.9244,1018.17914,1231.9271,1018.1799,1231.9275L1018.18066,1231.9279C1018.1936,1231.9146,1018.1021,1231.3615,1017.6319,1231.3392L1017.62683,1231.3401C1017.57465,1231.3359,1017.19037,1231.2977,1016.6722,1231.2462L1016.67224,1231.2468L1016.20123,1231.1993L1016.1941,1231.1985C1014.13855,1231.0214,1012.0408,1230.8464,1010.2499,1230.7108L1010.2476,1230.7117L1010.2435,1230.7104L1010.2428,1230.7112C1009.3852,1230.6497,1008.07117,1230.5382,1007.2925,1230.4601L1007.29095,1230.4601C1007.2574,1230.4572,1007.2368,1230.4552,1007.22516,1230.454L1007.2257,1230.455C1007.2257,1230.454,1007.21014,1230.4528,1007.1472,1230.4468L1007.1465,1230.4471C1006.9689,1230.4293,1007.1306,1230.4451,1006.953,1230.4277L1006.95337,1230.4288C1005.73584,1230.3114,1004.47687,1230.1935,1001.54913,1229.9675L1001.549,1229.9681C1001.49207,1229.9628,1000.54956,1229.8816,1000.48016,1229.8752L1000.4802,1229.8765C1000.24005,1229.8546,999.22015,1229.7668,998.7246,1229.725C997.93896,1229.6577,996.8945,1229.5692,995.48505,1229.4518L995.48474,1229.4521C994.76935,1229.3903,993.4028,1229.2734,992.5147,1229.2L992.5148,1229.2006C992.5147,1229.2,992.46783,1229.1956,992.4648,1229.1956L992.46484,1229.196C991.5423,1229.1189,990.2519,1229.0123,989.47504,1228.9353L989.46484,1228.9337C989.1206,1228.9062,988.70886,1228.8755,988.22955,1228.8392L988.22955,1228.84C987.7297,1228.8014,987.1283,1228.7561,986.6868,1228.7205L986.6867,1228.721C986.62427,1228.7152,986.4905,1228.7043,986.4352,1228.6995L986.4226,1228.6986C985.7081,1228.6547,985.16974,1228.5669,984.94745,1228.5072L984.9425,1228.5085C984.78015,1228.219,984.37805,1227.3677,983.93286,1226.3544L983.9329,1226.3552C983.1551,1224.5736,982.1813,1222.3707,981.6807,1221.239L981.6807,1221.2389C981.5212,1220.8772,981.4963,1220.8212,981.4127,1220.6313L981.4053,1220.6152C981.3763,1220.5549,981.34,1220.4769,981.2845,1220.3575C981.2091,1220.1959,981.092,1219.9441,980.9915,1219.7352L980.9915,1219.7357C980.96216,1219.6738,980.94446,1219.637,980.91534,1219.5771C980.7695,1219.2777,980.66223,1219.0187,980.6236,1218.9131L980.6191,1218.9133C980.61,1218.8488,980.5928,1218.8,980.59106,1218.7941C980.5432,1218.6477,980.38104,1218.2825,980.2336,1217.9531L980.22797,1217.9414C979.5736,1216.5671,979.3712,1216.1267,979.3168,1215.9851L979.31244,1215.9858C979.30444,1215.9224,979.289,1215.8745,979.28735,1215.8698L979.2873,1215.8693C979.24133,1215.7144,979.0898,1215.3527,978.918,1214.9995L978.9102,1214.9845L978.90955,1214.9825L978.9099,1214.9833C978.71643,1214.5841,978.5187,1214.1504,978.46277,1214.0056C978.3905,1213.8182,978.202,1213.3976,978.0582,1213.08L978.05414,1213.0712C977.95905,1212.871,977.83575,1212.5941,977.71173,1212.3152L977.7113,1212.3148C977.6547,1212.1871,977.5805,1212.0205,977.5352,1211.9208L977.531,1211.9116C977.3861,1211.6058,977.2126,1211.2172,977.1549,1211.0679L977.1549,1211.0674C977.0794,1210.8734,976.85815,1210.3912,976.6631,1209.9905L976.66315,1209.9899C976.5175,1209.691,976.41064,1209.4326,976.37164,1209.3265L976.36743,1209.3274C976.35913,1209.2687,976.34503,1209.2252,976.34375,1209.2206L976.34344,1209.2206C976.29724,1209.0637,976.1469,1208.7051,975.9742,1208.3508L975.9742,1208.3514C975.77814,1207.9469,975.57574,1207.5043,975.519,1207.3568L975.51874,1207.3563C975.444,1207.1627,975.22217,1206.6798,975.027,1206.2787L975.027,1206.28C974.882,1205.9802,974.7745,1205.7211,974.7356,1205.6145L974.73126,1205.6157C974.7219,1205.5508,974.7049,1205.5024,974.70294,1205.4957C974.6557,1205.3497,974.49286,1204.9846,974.34576,1204.6553L974.3397,1204.6418C973.7593,1203.4338,973.58136,1203.0365,973.22894,1202.191L973.22894,1202.191C973.0607,1201.7588,972.7877,1201.1663,972.61914,1200.801L972.61914,1200.8005C972.6171,1200.7961,972.56287,1200.6785,972.5618,1200.6763L972.5535,1200.6587C972.38324,1200.3206,972.11273,1199.7046,971.95233,1199.2974L971.94244,1199.2744C971.8027,1198.9614,971.61694,1198.6016,971.4627,1198.4169L971.4627,1198.4177C971.4554,1198.4082,971.35034,1198.2675,971.16895,1198.2006L971.16815,1198.2007C971.10614,1198.1768,971.0219,1198.1553,970.9224,1198.1572 Z"/>
</g>
<g style="fill:rgb(255,255,255); fill-opacity:1.0; stroke-linejoin: miter">
<path d="M862.5027,787.35693L861.348,804.5209Q853.1387,856.3915,813.3071,887.4907Q773.19995,918.56494,718.8493,912.6918Q666.9787,904.48254,635.87933,864.651Q625.91486,851.77576,619.4639,836.5925L614.04205,820.98303Q609.5739,804.8718,609.52374,787.35706Q610.88007,733.607,646.5716,697.91547Q682.2631,662.22394,736.01324,660.86755Q789.7632,662.22394,825.4547,697.91547Q861.14636,733.6069,862.5027,787.35693"/>
</g>
<g style="fill:rgb(105,232,251); fill-opacity:1.0; stroke-linejoin: miter">
<path d="M502.5364,814.6762C501.40848,810.4705,500.87076,806.1317,500.93607,801.7369C501.3301,775.75165,522.7892,754.9308,548.77515,755.3247C559.58496,755.48584,570.088,759.39966,578.34973,766.3428C585.69714,772.51697,591.0098,780.8379,593.5241,790.02356C610.937,788.6605,626.49097,799.9323,631.15967,816.11163C633.801,815.55096,636.4961,815.2891,639.20795,815.332C659.2057,815.634,675.23145,832.03156,674.9298,852.03064C674.62646,872.0315,658.1128,887.93756,638.1147,887.6355L511.49405,885.7231C491.49466,885.4207,475.4705,869.02026,475.77274,849.0215C476.02005,832.6588,487.06046,818.8394,502.5364,814.6762 Z"/>
</g>
</g>
</svg>